<svg width="28" height="28" viewBox="0 0 28 28" fill="none" xmlns="http://www.w3.org/2000/svg">
<ellipse cx="13.7466" cy="13.8614" rx="13.7466" ry="13.8614" fill="#4E6297"/>
<path d="M19.9326 9.57713C19.9326 8.53928 19.0244 7.62354 17.9952 7.62354H10.1853C9.15605 7.62354 8.24792 8.53928 8.24792 9.57713V17.4525C8.24792 18.4904 9.15605 19.4061 10.1853 19.4061H14.1205V14.9495H12.6675V12.9959H14.1205V12.2023C14.1205 10.8592 15.0892 9.69922 16.3 9.69922H17.8741V11.6528H16.3C16.1184 11.6528 15.9368 11.836 15.9368 12.2023V12.9959H17.8741V14.9495H15.9368V19.4061H17.9952C19.0244 19.4061 19.9326 18.4904 19.9326 17.4525V9.57713Z" fill="#FAF9F5"/>
</svg>
