<svg width="28" height="28" viewBox="0 0 28 28" fill="none" xmlns="http://www.w3.org/2000/svg">
<ellipse cx="13.8638" cy="14.1385" rx="13.7249" ry="13.8614" fill="url(#paint0_linear_65_104)"/>
<path d="M18.3799 8.59387H10.0341C9.09182 8.59387 8.3739 9.31892 8.3739 10.2706V18.6993C8.3739 19.6509 9.09182 20.376 10.0341 20.376H18.3799C19.3222 20.376 20.0401 19.6509 20.0401 18.6993V10.2706C20.0401 9.31892 19.3222 8.59387 18.3799 8.59387ZM14.207 18.0195C16.1364 18.0195 17.7069 16.4788 17.7069 14.6209C17.7069 14.3037 17.662 13.9411 17.5723 13.6692H18.5594V18.4727C18.5594 18.6993 18.3799 18.9259 18.1107 18.9259H10.3033C10.079 18.9259 9.85461 18.7446 9.85461 18.4727V13.6239H10.8866C10.7969 13.9411 10.752 14.2583 10.752 14.5756C10.7071 16.4788 12.2776 18.0195 14.207 18.0195ZM14.207 16.6601C12.9506 16.6601 11.9635 15.6631 11.9635 14.4396C11.9635 13.2161 12.9506 12.2191 14.207 12.2191C15.4634 12.2191 16.4505 13.2161 16.4505 14.4396C16.4505 15.7084 15.4634 16.6601 14.207 16.6601ZM18.5145 11.8113C18.5145 12.0832 18.2902 12.3098 18.021 12.3098H16.7646C16.4954 12.3098 16.271 12.0832 16.271 11.8113V10.5878C16.271 10.3159 16.4954 10.0893 16.7646 10.0893H18.021C18.2902 10.0893 18.5145 10.3159 18.5145 10.5878V11.8113Z" fill="#FAF9F5"/>
<defs>
<linearGradient id="paint0_linear_65_104" x1="5.97201" y1="24.8812" x2="24.3443" y2="6.00341" gradientUnits="userSpaceOnUse">
<stop stop-color="#EEA054"/>
<stop offset="0.502762" stop-color="#D64763"/>
<stop offset="1" stop-color="#B62A99"/>
</linearGradient>
</defs>
</svg>
