<svg width="167" height="58" viewBox="0 0 167 58" fill="none" xmlns="http://www.w3.org/2000/svg">
<circle cx="29.5" cy="29.5" r="28.5" fill="black" fill-opacity="0.7"/>
<path d="M39.48 43.16C38.12 43.16 36.7867 43.0133 35.48 42.72C34.2 42.4267 33.04 42.0533 32 41.6L32.2 34.6L35.08 34.76L35.76 38.96C36.1867 39.12 36.72 39.28 37.36 39.44C38 39.6 38.6667 39.68 39.36 39.68C40.24 39.68 41.0667 39.5467 41.84 39.28C42.64 38.9867 43.28 38.5467 43.76 37.96C44.2667 37.3733 44.52 36.6267 44.52 35.72C44.52 35 44.3733 34.3867 44.08 33.88C43.7867 33.3733 43.3333 32.8933 42.72 32.44C42.1067 31.9867 41.28 31.52 40.24 31.04C39.2 30.5333 38.1867 30.04 37.2 29.56C36.2133 29.08 35.32 28.5333 34.52 27.92C33.7467 27.3067 33.12 26.5733 32.64 25.72C32.1867 24.84 31.96 23.7733 31.96 22.52C31.96 21.0533 32.3467 19.7867 33.12 18.72C33.92 17.6267 34.9867 16.7867 36.32 16.2C37.68 15.6133 39.1467 15.32 40.72 15.32C41.9733 15.32 43.1867 15.44 44.36 15.68C45.5333 15.8933 46.6267 16.1733 47.64 16.52L48.2 23.44H45.4L43.56 19.2C43.1333 19.0667 42.6667 18.9733 42.16 18.92C41.6533 18.84 41.1467 18.8 40.64 18.8C39.7867 18.8 39.0133 18.9467 38.32 19.24C37.6533 19.5067 37.12 19.9067 36.72 20.44C36.3467 20.9467 36.16 21.5467 36.16 22.24C36.16 22.9333 36.3467 23.5333 36.72 24.04C37.0933 24.5467 37.5733 24.9867 38.16 25.36C38.7733 25.7333 39.44 26.08 40.16 26.4C40.88 26.6933 41.5733 27 42.24 27.32C43.84 28.0667 45.1067 28.84 46.04 29.64C47 30.4133 47.6933 31.2533 48.12 32.16C48.5467 33.0667 48.76 34.08 48.76 35.2C48.76 36.56 48.4933 37.7467 47.96 38.76C47.4533 39.7467 46.76 40.5733 45.88 41.24C45 41.88 44 42.36 42.88 42.68C41.76 43 40.6267 43.16 39.48 43.16Z" fill="#E5BD7D"/>
<path d="M52.6306 43L52.2706 40.08L54.7506 39.64V18.64L52.2706 18.4V15.36H61.0706L61.4306 18.36L58.8306 18.76V39.72L61.4706 40.04L61.4306 43H52.6306ZM65.5213 43L65.1213 40.16L67.6413 39.6V18.64L65.1613 18.4V15.36H73.5213C75.5213 15.36 77.2279 15.5867 78.6413 16.04C80.0813 16.4933 81.2413 17.1333 82.1213 17.96C83.0013 18.76 83.6413 19.6933 84.0413 20.76C84.4413 21.8267 84.6413 22.96 84.6413 24.16C84.6413 26.1333 84.1879 27.8 83.2812 29.16C82.4013 30.52 81.1346 31.5467 79.4813 32.24C77.8546 32.9333 75.9613 33.28 73.8013 33.28H71.7213V39.44L77.5613 40.28L77.4413 43H65.5213ZM71.7213 29.8H72.9213C75.0279 29.8 76.6146 29.5467 77.6813 29.04C78.7479 28.5333 79.4679 27.8533 79.8413 27C80.2413 26.12 80.4413 25.16 80.4413 24.12C80.4413 22.4133 79.8813 21.1067 78.7613 20.2C77.6413 19.2933 76.0813 18.84 74.0813 18.84H71.7213V29.8ZM97.2791 43L96.8791 40.16L99.3991 39.6V18.64L96.9191 18.4V15.36H105.279C107.279 15.36 108.986 15.5867 110.399 16.04C111.839 16.4933 112.999 17.1333 113.879 17.96C114.759 18.76 115.399 19.6933 115.799 20.76C116.199 21.8267 116.399 22.96 116.399 24.16C116.399 26.1333 115.946 27.8 115.039 29.16C114.159 30.52 112.892 31.5467 111.239 32.24C109.612 32.9333 107.719 33.28 105.559 33.28H103.479V39.44L109.319 40.28L109.199 43H97.2791ZM103.479 29.8H104.679C106.786 29.8 108.372 29.5467 109.439 29.04C110.506 28.5333 111.226 27.8533 111.599 27C111.999 26.12 112.199 25.16 112.199 24.12C112.199 22.4133 111.639 21.1067 110.519 20.2C109.399 19.2933 107.839 18.84 105.839 18.84H103.479V29.8ZM119.348 43L119.028 40.16L121.548 39.64V18.64L119.068 18.4V15.36H127.508C129.854 15.36 131.854 15.7067 133.508 16.4C135.161 17.0667 136.414 18.0533 137.268 19.36C138.148 20.6667 138.588 22.24 138.588 24.08C138.588 26.1333 138.054 27.8267 136.988 29.16C135.921 30.4667 134.521 31.44 132.788 32.08L136.588 39.72L139.148 40.2V43H133.348L128.868 33C128.388 33.0267 127.894 33.0533 127.388 33.08C126.881 33.1067 126.294 33.12 125.628 33.12V39.68L128.188 40.2V43H119.348ZM125.628 29.6H127.348C128.814 29.6 130.068 29.4133 131.108 29.04C132.148 28.64 132.948 28.04 133.508 27.24C134.094 26.4133 134.388 25.3867 134.388 24.16C134.388 22.9867 134.134 22.0133 133.628 21.24C133.121 20.44 132.334 19.8533 131.268 19.48C130.228 19.08 128.894 18.88 127.268 18.88H125.628V29.6ZM153.431 43.16C151.537 43.16 149.871 42.8 148.431 42.08C147.017 41.3333 145.844 40.3067 144.911 39C143.977 37.6933 143.271 36.2133 142.791 34.56C142.337 32.88 142.111 31.1067 142.111 29.24C142.111 27.3733 142.337 25.6 142.791 23.92C143.271 22.24 143.977 20.76 144.911 19.48C145.844 18.1733 147.017 17.16 148.431 16.44C149.871 15.6933 151.537 15.32 153.431 15.32C155.324 15.32 156.964 15.6933 158.351 16.44C159.764 17.16 160.937 18.1733 161.871 19.48C162.804 20.76 163.511 22.24 163.991 23.92C164.471 25.6 164.711 27.3733 164.711 29.24C164.711 31.1067 164.471 32.88 163.991 34.56C163.511 36.2133 162.804 37.6933 161.871 39C160.937 40.3067 159.764 41.3333 158.351 42.08C156.964 42.8 155.324 43.16 153.431 43.16ZM153.431 39.68C154.604 39.68 155.631 39.4 156.511 38.84C157.391 38.2533 158.124 37.48 158.711 36.52C159.297 35.56 159.737 34.4667 160.031 33.24C160.324 31.9867 160.471 30.68 160.471 29.32C160.471 27.96 160.324 26.6533 160.031 25.4C159.737 24.1467 159.297 23.0267 158.711 22.04C158.124 21.0533 157.391 20.2667 156.511 19.68C155.631 19.0933 154.604 18.8 153.431 18.8C152.231 18.8 151.177 19.0933 150.271 19.68C149.391 20.2667 148.657 21.0533 148.071 22.04C147.484 23.0267 147.044 24.1467 146.751 25.4C146.457 26.6533 146.311 27.96 146.311 29.32C146.311 30.68 146.457 31.9867 146.751 33.24C147.044 34.4667 147.484 35.56 148.071 36.52C148.657 37.48 149.391 38.2533 150.271 38.84C151.177 39.4 152.231 39.68 153.431 39.68Z" fill="white" fill-opacity="0.8"/>
<circle cx="14" cy="14" r="14" fill="#E5BD7D"/>
</svg>
