<?xml version="1.0" standalone="no"?>
<!DOCTYPE svg PUBLIC "-//W3C//DTD SVG 20010904//EN"
 "http://www.w3.org/TR/2001/REC-SVG-20010904/DTD/svg10.dtd">
<svg version="1.0" xmlns="http://www.w3.org/2000/svg"
 width="260.000000pt" height="260.000000pt" viewBox="0 0 260.000000 260.000000"
 preserveAspectRatio="xMidYMid meet">
<metadata>
Created by potrace 1.14, written by Peter Selinger 2001-2017
</metadata>
<g transform="translate(0.000000,260.000000) scale(0.100000,-0.100000)"
fill="#000000" stroke="none">
<path d="M1215 2540 c-38 -4 -86 -13 -105 -18 -19 -6 -52 -13 -72 -17 -21 -3
-38 -11 -37 -18 0 -7 22 -29 49 -49 44 -34 82 -82 137 -178 12 -19 33 -71 48
-115 25 -74 27 -88 22 -190 -9 -184 -62 -302 -192 -430 -176 -173 -415 -229
-635 -151 -70 26 -151 68 -179 94 -14 14 -41 36 -58 49 -18 14 -42 40 -54 59
-25 40 -36 37 -44 -14 -4 -20 -13 -57 -20 -82 -19 -63 -27 -212 -16 -295 18
-131 49 -280 65 -310 9 -16 16 -36 16 -43 0 -7 11 -35 25 -62 14 -27 25 -56
25 -63 0 -8 9 -22 20 -32 11 -10 20 -23 20 -29 1 -20 104 -162 175 -240 34
-37 192 -169 215 -180 8 -3 35 -20 60 -36 25 -16 56 -35 70 -41 14 -6 41 -20
61 -30 20 -11 43 -19 51 -19 7 0 30 -9 50 -20 20 -10 70 -23 111 -28 75 -10
117 -25 117 -42 0 -6 69 -10 175 -10 113 0 175 4 175 10 0 15 44 29 128 41 41
6 84 16 96 24 12 7 32 15 46 18 43 10 169 72 255 127 127 79 288 241 374 377
39 62 107 196 115 227 4 16 18 43 31 60 54 71 59 95 63 333 4 211 3 222 -16
241 -13 13 -23 40 -27 79 -9 80 -35 165 -74 248 -10 22 -24 51 -31 65 -31 66
-87 154 -137 211 -21 25 -48 59 -61 75 -43 57 -289 246 -352 270 -8 3 -38 16
-66 30 -28 13 -56 24 -63 24 -6 0 -29 9 -51 20 -22 11 -52 20 -68 20 -15 0
-62 9 -103 19 -88 23 -237 32 -334 21z m-708 -1255 c58 -17 77 -35 68 -65 -7
-24 -27 -26 -58 -6 -22 15 -49 19 -99 17 -39 -1 -68 -34 -68 -75 0 -44 28 -67
115 -96 78 -26 121 -63 131 -114 22 -117 -91 -214 -219 -186 -56 12 -117 45
-117 64 0 7 6 20 13 30 13 18 16 17 54 -8 30 -20 54 -27 90 -28 56 0 86 15
102 49 28 61 1 100 -90 132 -119 41 -149 71 -149 153 0 67 45 122 114 139 47
11 58 10 113 -6z"/>
</g>
</svg>
