<svg width="28" height="28" viewBox="0 0 28 28" fill="none" xmlns="http://www.w3.org/2000/svg">
<ellipse cx="13.8248" cy="13.8614" rx="13.8248" ry="13.8614" fill="#2F89CE"/>
<path d="M6.46361 14.1208L9.642 15.3092L10.881 19.3063C10.9349 19.5764 11.2581 19.6304 11.4736 19.4684L13.2513 18.01C13.4129 17.8479 13.6823 17.8479 13.8978 18.01L17.0762 20.3326C17.2916 20.4947 17.6149 20.3866 17.6687 20.1166L20.039 8.77329C20.0929 8.50321 19.8236 8.23313 19.5542 8.34116L6.46361 13.4186C6.14039 13.5267 6.14039 14.0128 6.46361 14.1208ZM10.7194 14.715L16.9684 10.8799C17.0761 10.8259 17.1839 10.9879 17.0762 11.0419L11.9584 15.8493C11.7968 16.0114 11.6352 16.2274 11.6352 16.4975L11.4736 17.7939C11.4736 17.9559 11.2042 18.01 11.1504 17.7939L10.5039 15.4172C10.3423 15.1471 10.4501 14.823 10.7194 14.715Z" fill="#FAF9F5"/>
</svg>
