<svg width="28" height="28" viewBox="0 0 28 28" fill="none" xmlns="http://www.w3.org/2000/svg">
<ellipse cx="13.9644" cy="14" rx="13.9644" ry="14" fill="#7294C7"/>
<path d="M20.8113 17.5809C20.8113 17.5228 20.7534 17.5228 20.7534 17.4647C20.5215 16.9997 19.9998 16.4185 19.3042 15.7792C18.9564 15.4886 18.7824 15.2562 18.6665 15.1399C18.4926 14.9075 18.4926 14.7331 18.5506 14.5006C18.6086 14.3263 18.8404 14.0357 19.2462 13.5126C19.4781 13.222 19.594 13.0477 19.7679 12.8733C20.6374 11.711 21.0432 10.9554 20.9273 10.6067L20.8693 10.5486C20.8114 10.4905 20.7534 10.4324 20.6374 10.4324C20.5215 10.3742 20.3476 10.3742 20.1737 10.4324H17.9709C17.9129 10.4324 17.9129 10.4324 17.797 10.4324C17.739 10.4324 17.6811 10.4324 17.6811 10.4324H17.6231H17.5651L17.5071 10.4905C17.4492 10.5486 17.4492 10.5486 17.4492 10.6067C17.2173 11.246 16.9275 11.7691 16.6376 12.3503C16.4637 12.6408 16.2898 12.9314 16.1159 13.1639C15.942 13.3964 15.8261 13.5707 15.7101 13.687C15.5942 13.8032 15.4782 13.8613 15.4203 13.9776C15.3623 14.0357 15.2464 14.0938 15.2464 14.0357C15.1884 14.0357 15.1304 14.0357 15.1304 13.9776C15.0725 13.9194 15.0145 13.8613 14.9565 13.8032C14.8986 13.7451 14.8986 13.6289 14.8406 13.5126C14.8406 13.3964 14.8406 13.2801 14.8406 13.222C14.8406 13.1639 14.8406 12.9896 14.8406 12.8733C14.8406 12.699 14.8406 12.5827 14.8406 12.5246C14.8406 12.3503 14.8406 12.1178 14.8406 11.8853C14.8406 11.6528 14.8406 11.4785 14.8406 11.3622C14.8406 11.246 14.8406 11.0717 14.8406 10.9554C14.8406 10.7811 14.8406 10.6648 14.8406 10.6067C14.8406 10.5486 14.7826 10.4324 14.7826 10.3742C14.7247 10.3161 14.6667 10.258 14.6087 10.1999C14.5507 10.1418 14.4348 10.1418 14.3768 10.0836C14.087 10.0255 13.7392 9.96741 13.3334 9.96741C12.4059 9.96741 11.7683 10.0255 11.5364 10.1418C11.4205 10.1999 11.3045 10.258 11.2466 10.3742C11.1306 10.4905 11.1306 10.5486 11.1886 10.5486C11.4784 10.6067 11.7103 10.7229 11.8262 10.8973L11.8842 11.0135C11.9422 11.0717 11.9422 11.1879 12.0001 11.3622C12.0581 11.5366 12.0581 11.711 12.0581 11.9434C12.0581 12.2921 12.0581 12.6408 12.0581 12.8733C12.0581 13.1639 12.0001 13.3383 12.0001 13.5126C12.0001 13.687 11.9422 13.8032 11.8842 13.8613C11.8262 13.9776 11.8262 14.0357 11.7683 14.0357C11.7683 14.0357 11.7683 14.0938 11.7103 14.0938C11.6523 14.0938 11.5944 14.1519 11.4784 14.1519C11.4205 14.1519 11.3045 14.0938 11.2466 14.0357C11.1306 13.9776 11.0147 13.8613 10.9567 13.7451C10.8408 13.6289 10.7248 13.4545 10.6089 13.222C10.493 12.9896 10.319 12.7571 10.2031 12.4084L10.0872 12.1759C10.0292 12.0597 9.91328 11.8272 9.79734 11.5366C9.6814 11.246 9.56546 11.0135 9.44953 10.7229C9.39156 10.6067 9.3336 10.5486 9.27563 10.4905H9.21766C9.21766 10.4905 9.15968 10.4324 9.10171 10.4324C9.04374 10.4324 8.98578 10.3742 8.92781 10.3742H6.84095C6.60907 10.3742 6.49314 10.4323 6.43517 10.4905L6.3772 10.5486C6.3772 10.5486 6.3772 10.6067 6.3772 10.6648C6.3772 10.7229 6.3772 10.7811 6.43517 10.8973C6.72501 11.5947 7.07282 12.2921 7.42063 12.9896C7.76844 13.6289 8.11626 14.21 8.34813 14.6169C8.63797 15.0237 8.86984 15.4305 9.15969 15.7792C9.44953 16.1279 9.62343 16.3604 9.6814 16.4767C9.79733 16.5929 9.8553 16.651 9.91327 16.7091L10.0872 16.8835C10.2031 16.9997 10.377 17.1741 10.6089 17.3484C10.8408 17.5228 11.1306 17.6971 11.4205 17.8715C11.7103 18.0458 12.0581 18.1621 12.4059 18.2783C12.8117 18.3946 13.1595 18.4527 13.5073 18.3946H14.3768C14.5508 18.3946 14.6667 18.3364 14.7826 18.2202L14.8406 18.1621C14.8406 18.104 14.8986 18.104 14.8986 18.0458C14.8986 17.9877 14.8986 17.9296 14.8986 17.8134C14.8986 17.5809 14.8986 17.4065 14.9565 17.2322C15.0145 17.0578 15.0145 16.9416 15.0725 16.8254C15.1304 16.7091 15.1884 16.651 15.2464 16.5929C15.3043 16.5348 15.3623 16.4767 15.3623 16.4767H15.4203C15.5362 16.4185 15.7101 16.4767 15.8261 16.5929C16 16.7091 16.1739 16.8835 16.2898 17.0578C16.4057 17.2322 16.5797 17.4065 16.8115 17.639C17.0434 17.8715 17.2173 18.0458 17.3332 18.104L17.5071 18.2202C17.6231 18.2783 17.739 18.3364 17.9129 18.3946C18.0868 18.4527 18.2028 18.4527 18.3187 18.4527L20.2896 18.3946C20.4635 18.3946 20.6374 18.3364 20.7534 18.2783C20.8693 18.2202 20.9273 18.1621 20.9273 18.0458C20.9273 17.9877 20.9273 17.8715 20.9273 17.8134C20.8113 17.6971 20.8113 17.639 20.8113 17.5809Z" fill="#FAF9F5"/>
</svg>
